P1
# Created by GIMP version 2.10.28 PNM plug-in
10 10
0000001000000001100000000100000001111100001010001001101000010101000001
010000000100100000100001111100