P1
# Created by GIMP version 2.10.28 PNM plug-in
10 10
0000000000001100110001001100101000000001100000000101000000100010000100
000100100000001100000000000000