P1
# Created by GIMP version 2.10.28 PNM plug-in
10 10
0001111000001000010001000000100101001010010000001001010010100100110010
001000010000011110000000000000