P1
# Created by GIMP version 2.10.28 PNM plug-in
10 10
0100000010001000010001000000100010010000010010100000010001000011001100
010000001001000000100011111100