P1
# Created by GIMP version 2.10.28 PNM plug-in
9 3
010000010011000110000000000