P1
# Created by GIMP version 2.10.28 PNM plug-in
20 20
0000000000000000000000000100000000100000000001000000001000000000010000
0000100000000001000000001000000000011111111110000000001000000000010000
0001000000000000100000010000000000001000000100000000000010000001000000
0000001000000100000000000010000001000000000000100000010000000000001000
0001000000000000100000010000000000001000000010000000000100000000011111
11111000000000000000000000000000000000000000000000