P1
# Created by GIMP version 2.10.28 PNM plug-in
9 3
000000000001111100000000000