P1
# Created by GIMP version 2.10.28 PNM plug-in
20 20
0000111000000111000000011011000011011000000100010000100010000001000100
0010001000000100010000100010000001000100001000100000010111111111101000
0001100000000001100000010000000000001000000100000000000010000001000000
0000001000000100000000000010000001000000000000100000010000000000001000
0001000000000000100000010000000000001000000010000000000100000000011111
11111000000000000000000000000000000000000000000000