P1
# Created by GIMP version 2.10.28 PNM plug-in
20 20
0000000000000000000000000000000000000000000011100000011100000001111100
0011111000000111111001111110000001111110011111100000011111111111111000
0001100000000001100000010000000000001000000100000000000010000001000000
0000001000000100000000000010000001000000000000100000010000000000001000
0001000000000000100000010000000000001000000010000000000100000000011111
11111000000000000000000000000000000000000000000000