P1
# Created by GIMP version 2.10.28 PNM plug-in
9 3
001000100011000110000000000