P1
# Created by GIMP version 2.10.28 PNM plug-in
20 20
0000000000000000000000000000000000000000000000000000000000000111110000
0000111110111111100000011111111111111111111111111111111111111111111111
1111110000000011111111111100000000111111111110000000000111111111000000
0000001111111100000000000011111111000000000000111100010000000000001000
0001000000000000100000010000000000001000000010000000000100000000011111
11111000000000000000000000000000000000000000000000