P1
# Created by GIMP version 2.10.28 PNM plug-in
9 3
000111000010000010001111100