P1
# Created by GIMP version 2.10.28 PNM plug-in
20 20
0000000000000000000000111100000000111100010001100000010001001100000100
0001000010100000010000010000010100011111111110000101111000000000010001
0001000000000000111000010000000000001000000100000000000010000001000000
0000001000000100000000000010000001000000000000100000010000000000001000
0001000000000000100000010000000000001000000010000000000100000000011111
11111000000000000000000000000000000000000000000000