P1
# Created by GIMP version 2.10.28 PNM plug-in
9 3
011101110011101110000000000