P1
# Created by GIMP version 2.10.28 PNM plug-in
20 20
0000000000000000000000000000000000000000001110000000000111000111110000
0000111110111111100000011111111111111000000111111111111111111111111111
0111110000000011111000111000000000011100000100000000000010000001000000
0000001000000100000000000010000001000000000000100000010000000000001000
0001000000000000100000010000000000001000000010000000000100000000011111
11111000000000000000000000000000000000000000000000