P1
# Created by GIMP version 2.10.28 PNM plug-in
9 3
111111111100000001111111111